<?xml version="1.0" encoding="utf-8"?>
<!-- Generator: Adobe Illustrator 28.2.0, SVG Export Plug-In . SVG Version: 6.00 Build 0)  -->
<svg version="1.1" id="layer" xmlns="http://www.w3.org/2000/svg" xmlns:xlink="http://www.w3.org/1999/xlink" x="0px" y="0px"
	 viewBox="0 0 652 267" style="enable-background:new 0 0 652 267;" xml:space="preserve">
<path d="M20,135.6c0-60.5,35.3-77.9,44.5-77.9c8.7,0,15.5,1.5,15.5,1.5l-1,23.2c-2.4-0.5-4.8-0.5-9.2-0.5
	c-8.7,0-22.3,20.8-22.3,54.7s14,53.2,22.3,53.2c3.9,0,9.7-1.9,12.1-2.4l-0.5,23.7c0,0-9.2,2.9-17.9,3.4
	C53.4,213.5,20,196.1,20,135.6z M462.3,135.6c0-60.5,35.3-77.9,44.5-77.9c8.7,0,15.5,1.5,15.5,1.5l-1,23.2c-2.4-0.5-4.8-0.5-9.2-0.5
	c-8.7,0-22.3,20.8-22.3,54.7s14,53.2,22.3,53.2c3.9,0,9.7-1.9,12.1-2.4l-0.5,23.7c0,0-9.2,2.9-17.9,3.4
	C495.6,213.5,462.3,196.1,462.3,135.6z M111,135.6c0-37.7,4.4-52.3,9.2-52.3c5.3,0,9.2,14.5,9.2,52.3s-4.4,52.3-9.2,52.3
	C115.3,187.9,111,173.8,111,135.6z M120.6,213.5c13.5,0,36.8-10.6,36.8-78.9c0-67.7-23.2-77.4-36.8-77.4s-38.7,9.2-38.7,77.4
	S106.6,213.5,120.6,213.5z M327.3,93c1-3.4,9.2-8.7,12.1-8.7c5.3,0,12.6,12.6,13.5,38.2c1.5,39.2-17.9,63.9-25.2,65.8V93
	C327.7,93,327.3,93,327.3,93z M303.1,260h25.6v-52.3c13.5-1.9,48.4-13.5,48.4-79.4c0-48.9-16-72.1-37.7-72.1c0,0-1.9,0-2.9,0.5
	l-8.2,9.7v-9.7h-25.2C303.1,56.7,303.1,260,303.1,260z M427.4,183.5c-0.5,2.9-2.4,6.8-5.8,6.8c-2.9,0-14-3.9-15.5-23.2
	c-2.4-30.5,17.9-48.9,21.3-48.9C427.4,118.2,427.4,183.5,427.4,183.5z M427.4,99.3c-11.1,1-46.9,19.4-46,63.9
	c1,33.4,19.4,50.3,35.3,50.3c1,0,1.9,0,3.4-0.5l9.2-12.1V212H454v-97.7c0-46-13.1-56.6-34.4-56.6c-12.6,0-24.7,3.4-24.7,3.4v26.6
	c6.3-1.9,15-2.9,21.8-2.9s10.2,11.1,10.2,17.4C426.9,102.2,427.4,99.3,427.4,99.3z M563.9,148.7c0,20.3,6.8,39.2,14.5,39.2
	c1.9,0,3.9-0.5,5.8-0.5l1,24.2c0,0-4.4,1-9.2,1c-12.6,0-39.2-8.7-39.2-69.2V81.9h-9.2V59.2h9.2V18h25.6v41.1h18.9v22.7h-17.9
	L563.9,148.7z M215.5,113.4c0-11.1-2.9-25.2-9.7-25.2c-10.6,0-10.2,14.5-10.2,25.2v99.2H168V58.2h28.5v8.7l7.3-10.2
	c1-0.5,1.5-0.5,2.9-0.5c8.2,0,16.9,3.4,23.2,10.6c6.8-8.2,14.5-10.6,23.2-10.6c23.2,0,35.8,20.8,35.8,65.3v90h-27.6v-98.2
	c0-11.1-1.5-24.7-8.2-24.7c-10.2,0.5-11.1,13.5-11.1,24.7v99.2h-27.6v-99.2C214.5,113.4,215.5,113.4,215.5,113.4z M620,201.9
	c0,3.9-1.5,6.8-3.9,9.2c-2.4,2.4-5.8,3.9-9.2,3.9c-3.9,0-6.8-1.5-9.2-3.9s-3.9-5.8-3.9-9.2c0-3.9,1.5-6.8,3.9-9.2
	c2.4-2.4,5.8-3.9,9.2-3.9c3.9,0,6.8,1.5,9.2,3.9S620,198,620,201.9z M617.1,201.9c0-2.9-1-5.3-2.9-7.3s-4.4-2.9-7.3-2.9
	c-2.9,0-5.3,1-7.3,2.9c-1.9,1.9-2.9,4.4-2.9,7.3s1,5.3,2.9,7.3s4.4,2.9,7.3,2.9c2.9,0,5.3-1,7.3-2.9
	C616.1,207.2,617.1,204.8,617.1,201.9z M614.2,208.2h-4.4l-3.9-4.8h-1.5v4.8H601v-13.1h7.3c0.5,0,1,0.5,1.5,0.5l1.5,1.5
	c0.5,0.5,0.5,1,0.5,1.9s-0.5,1.9-1,2.4s-1.5,1-1.9,1.5C608.9,202.9,614.2,208.2,614.2,208.2z M608.4,199v-1l-0.5-0.5
	c-0.5,0-0.5,0-1-0.5H605v3.9h2.4c0.5,0,0.5,0,1-0.5l0.5-0.5C608.4,199.5,608.4,199,608.4,199z"/>
</svg>
